<svg xmlns="http://www.w3.org/2000/svg" width="13.421" height="13.43" viewBox="0 0 13.421 13.43">
    <defs>
        <style>
            .cls-1{fill:#fff}
        </style>
    </defs>
    <path id="Path_192" d="M1307.1 49.06v-9.39a.142.142 0 0 0 .02-.06 2.363 2.363 0 0 1 2.32-1.96c2.92.02 5.85.01 8.77.01a2.3 2.3 0 0 1 2.31 2.31v8.79a2.224 2.224 0 0 1-1.29 2.07 4.162 4.162 0 0 1-.73.24h-2.6c0-.02-.01-.04-.01-.06v-4.9c0-.03.01-.07.01-.11h2.21v-2.24h-2.22c0-.34-.01-.66 0-.98a.5.5 0 0 1 .55-.5h1.53a.528.528 0 0 0 .13-.01v-2.22h-1.95a1.316 1.316 0 0 0-.44.08 2.746 2.746 0 0 0-1.83 1.99 3.84 3.84 0 0 0-.1 1.17v.48h-1.63a.375.375 0 0 0-.01.1v2.03c0 .09.03.11.11.11h1.53v5.07h-4.69a.142.142 0 0 0-.06-.02 2.241 2.241 0 0 1-1.72-1.28c-.09-.23-.14-.48-.21-.72z" class="cls-1" data-name="Path 192" transform="translate(-1307.1 -37.65)"/>
</svg>
