<svg xmlns="http://www.w3.org/2000/svg" width="84.094" height="46.174" viewBox="0 0 84.094 46.174">
    <defs>
        <style>
            .cls-1{fill:#231f20}.cls-2{fill:#2199e3}.cls-3{fill:#f05929}.cls-4{fill:#fff}
        </style>
    </defs>
    <g id="Group_1429" data-name="Group 1429" transform="translate(-314.515 -240.647)">
        <g id="Group_1419" data-name="Group 1419" transform="translate(314.582 240.647)">
            <g id="Group_1418" data-name="Group 1418">
                <path id="Path_707" d="M322.827 250.284h-7.589v7.284h-.549v-14.812h9.176v.549h-8.627v6.409h7.589z" class="cls-1" data-name="Path 707" transform="translate(-314.688 -241.942)"/>
                <path id="Path_708" d="M348.444 256.273h-.549v-15.626h.549z" class="cls-1" data-name="Path 708" transform="translate(-335.083 -240.647)"/>
                <path id="Path_709" d="M368.689 263.625v-1.78a3.593 3.593 0 0 1-1.424 1.45 4.734 4.734 0 0 1-2.371.534 3.357 3.357 0 0 1-2.7-1.053 4.675 4.675 0 0 1-.921-3.067v-7.091h.549v7.111a4.042 4.042 0 0 0 .794 2.65 2.812 2.812 0 0 0 2.258.9 4.152 4.152 0 0 0 2.564-.742 3.361 3.361 0 0 0 1.251-2.177v-7.742h.559v11.007z" class="cls-1" data-name="Path 709" transform="translate(-343.299 -247.999)"/>
                <path id="Path_710" d="M392.7 244.918v2.971h2.5v.549h-2.5v7.821a3.118 3.118 0 0 0 .382 1.731 1.431 1.431 0 0 0 1.277.56 7.9 7.9 0 0 0 1.088-.091l.092.519a3.758 3.758 0 0 1-1.15.122 2.047 2.047 0 0 1-1.719-.667 3.47 3.47 0 0 1-.529-2.1v-7.892H390.1v-.549h2.034v-2.971z" class="cls-1" data-name="Path 710" transform="translate(-361.007 -243.27)"/>
                <path id="Path_711" d="M412.483 244.918v2.971h2.5v.549h-2.5v7.821a3.114 3.114 0 0 0 .382 1.731 1.431 1.431 0 0 0 1.277.56 7.9 7.9 0 0 0 1.088-.091l.092.519a3.755 3.755 0 0 1-1.149.122 2.047 2.047 0 0 1-1.719-.667 3.468 3.468 0 0 1-.529-2.1v-7.892h-2.035v-.549h2.035v-2.971z" class="cls-1" data-name="Path 711" transform="translate(-373.158 -243.27)"/>
                <path id="Path_712" d="M435.789 263.5a4.426 4.426 0 0 1-2.447-.717 4.918 4.918 0 0 1-1.745-1.968 6.081 6.081 0 0 1-.631-2.777v-.458a6.378 6.378 0 0 1 .61-2.8 4.838 4.838 0 0 1 1.678-1.984 4.118 4.118 0 0 1 2.33-.712 3.85 3.85 0 0 1 3.016 1.316 4.987 4.987 0 0 1 1.17 3.449v.58h-8.25v.6a5.529 5.529 0 0 0 .564 2.483 4.445 4.445 0 0 0 1.557 1.792 3.849 3.849 0 0 0 2.151.65 4.375 4.375 0 0 0 1.887-.369 3.835 3.835 0 0 0 1.379-1.137l.387.275a4.151 4.151 0 0 1-3.656 1.777zm-.2-10.865a3.6 3.6 0 0 0-2.726 1.2 5.091 5.091 0 0 0-1.312 3.047h7.671v-.132a4.652 4.652 0 0 0-.473-2.081 3.646 3.646 0 0 0-1.3-1.5 3.36 3.36 0 0 0-1.864-.53z" class="cls-1" data-name="Path 712" transform="translate(-386.104 -247.675)"/>
                <path id="Path_713" d="M467.972 252.7l-.712-.061a3.258 3.258 0 0 0-2.35.91 4.534 4.534 0 0 0-1.241 2.546v7.205h-.549v-11.006h.549v2.289a4.052 4.052 0 0 1 1.343-1.821 3.642 3.642 0 0 1 2.249-.672 2.179 2.179 0 0 1 .773.114z" class="cls-1" data-name="Path 713" transform="translate(-405.851 -247.675)"/>
            </g>
        </g>
        <g id="Group_1420" data-name="Group 1420" transform="translate(341.921 266.598)">
            <path id="Path_714" d="M394.224 321.339h-2.852v-6.9a6.534 6.534 0 0 1 8.506-6.226l-.863 2.719a3.682 3.682 0 0 0-4.792 3.507z" class="cls-2" data-name="Path 714" transform="translate(-389.125 -307.908)"/>
            <path id="Path_715" d="M390.647 321.846H387.8v-7.1a3.674 3.674 0 0 0-2.247-3.389l1.111-2.627a6.521 6.521 0 0 1 3.988 6.016z" class="cls-3" data-name="Path 715" transform="translate(-385.548 -308.415)"/>
            <path id="Path_716" d="M392.879 314.032a6.5 6.5 0 0 0-1.507 4.168v6.9h2.852V318a6.524 6.524 0 0 0-1.345-3.968z" class="cls-4" data-name="Path 716" transform="translate(-389.125 -311.669)"/>
        </g>
        <g id="Group_1422" data-name="Group 1422" transform="translate(384.948 266.576)">
            <path id="Path_717" d="M506.847 317.395a3.913 3.913 0 0 1-2.888 1.275v.01a3.926 3.926 0 0 1 0-7.851v-.01a3.93 3.93 0 0 1 3.926 3.926v.037l2.844-1.333a6.892 6.892 0 0 0-13.662 1.3v.01a6.9 6.9 0 0 0 6.894 6.894v-.01a6.885 6.885 0 0 0 5.6-2.887z" class="cls-2" data-name="Path 717" transform="translate(-497.066 -307.85)"/>
            <path id="Path_718" d="M497.752 321.62a6.882 6.882 0 0 0 1.324 2.388l12.043-5.616a6.844 6.844 0 0 0-.982-2.547z" class="cls-3" data-name="Path 718" transform="translate(-497.487 -312.76)"/>
            <g id="Group_1421" data-name="Group 1421" transform="translate(.245 3.093)">
                <path id="Path_719" d="M500.447 327.472l-2.745 1.28a6.856 6.856 0 0 0 .255.727 6.945 6.945 0 0 0 1.049 1.67l2.814-1.312a3.924 3.924 0 0 1-1.373-2.365z" class="cls-4" data-name="Path 719" transform="translate(-497.702 -322.994)"/>
                <path id="Path_720" d="M526.344 318.387a6.838 6.838 0 0 0-.6-1.85 6.096 6.096 0 0 0-.182-.338l-.037-.064c-.055-.092-.117-.18-.176-.269l-2.736 1.276a3.905 3.905 0 0 1 .924 2.525v.037z" class="cls-4" data-name="Path 720" transform="translate(-513.001 -315.866)"/>
            </g>
        </g>
        <g id="Group_1423" data-name="Group 1423" transform="translate(369.252 266.576)">
            <path id="Path_721" d="M470.172 314.744a6.894 6.894 0 0 0-13.788 0v.01a6.9 6.9 0 0 0 6.894 6.894v-.01a6.9 6.9 0 0 0 6.894-6.894zm-6.894 3.925v.01a3.926 3.926 0 1 1 0-7.851v-.01a3.926 3.926 0 1 1 0 7.851z" class="cls-3" data-name="Path 721" transform="translate(-456.384 -307.85)"/>
            <path id="Rectangle_624" d="M0 0h2.897v19.905H0z" class="cls-2" data-name="Rectangle 624" transform="translate(0 .341)"/>
            <path id="Path_722" d="M459.281 322.409v-11.222a6.884 6.884 0 0 0-2.9 5.606v.01a6.884 6.884 0 0 0 2.9 5.606z" class="cls-4" data-name="Path 722" transform="translate(-456.384 -309.9)"/>
        </g>
        <g id="Group_1424" data-name="Group 1424" transform="translate(353.137 266.58)">
            <path id="Path_723" d="M417.612 314.78a3.926 3.926 0 1 0 3.9-3.95l-.019-2.968a6.894 6.894 0 1 1-6.851 6.937z" class="cls-4" data-name="Path 723" transform="translate(-414.634 -307.862)"/>
            <path id="Path_724" d="M421.512 307.864h-.043a6.9 6.9 0 0 0-6.851 6.937l2.969-.018a3.93 3.93 0 0 1 3.9-3.95h.025z" class="cls-3" data-name="Path 724" transform="translate(-414.618 -307.862)"/>
        </g>
        <g id="Group_1426" data-name="Group 1426" transform="translate(314.582 240.647)">
            <g id="Group_1425" data-name="Group 1425">
                <path id="Path_725" d="M322.827 250.284h-7.589v7.284h-.549v-14.812h9.176v.549h-8.627v6.409h7.589z" class="cls-4" data-name="Path 725" transform="translate(-314.688 -241.942)"/>
                <path id="Path_726" d="M348.444 256.273h-.549v-15.626h.549z" class="cls-4" data-name="Path 726" transform="translate(-335.083 -240.647)"/>
                <path id="Path_727" d="M368.689 263.625v-1.78a3.593 3.593 0 0 1-1.424 1.45 4.734 4.734 0 0 1-2.371.534 3.357 3.357 0 0 1-2.7-1.053 4.675 4.675 0 0 1-.921-3.067v-7.091h.549v7.111a4.042 4.042 0 0 0 .794 2.65 2.812 2.812 0 0 0 2.258.9 4.152 4.152 0 0 0 2.564-.742 3.361 3.361 0 0 0 1.251-2.177v-7.742h.559v11.007z" class="cls-4" data-name="Path 727" transform="translate(-343.299 -247.999)"/>
                <path id="Path_728" d="M392.7 244.918v2.971h2.5v.549h-2.5v7.821a3.118 3.118 0 0 0 .382 1.731 1.431 1.431 0 0 0 1.277.56 7.9 7.9 0 0 0 1.088-.091l.092.519a3.758 3.758 0 0 1-1.15.122 2.047 2.047 0 0 1-1.719-.667 3.47 3.47 0 0 1-.529-2.1v-7.892H390.1v-.549h2.034v-2.971z" class="cls-4" data-name="Path 728" transform="translate(-361.007 -243.27)"/>
                <path id="Path_729" d="M412.483 244.918v2.971h2.5v.549h-2.5v7.821a3.114 3.114 0 0 0 .382 1.731 1.431 1.431 0 0 0 1.277.56 7.9 7.9 0 0 0 1.088-.091l.092.519a3.755 3.755 0 0 1-1.149.122 2.047 2.047 0 0 1-1.719-.667 3.468 3.468 0 0 1-.529-2.1v-7.892h-2.035v-.549h2.035v-2.971z" class="cls-4" data-name="Path 729" transform="translate(-373.158 -243.27)"/>
                <path id="Path_730" d="M435.789 263.5a4.426 4.426 0 0 1-2.447-.717 4.918 4.918 0 0 1-1.745-1.968 6.081 6.081 0 0 1-.631-2.777v-.458a6.378 6.378 0 0 1 .61-2.8 4.838 4.838 0 0 1 1.678-1.984 4.118 4.118 0 0 1 2.33-.712 3.85 3.85 0 0 1 3.016 1.316 4.987 4.987 0 0 1 1.17 3.449v.58h-8.25v.6a5.529 5.529 0 0 0 .564 2.483 4.445 4.445 0 0 0 1.557 1.792 3.849 3.849 0 0 0 2.151.65 4.375 4.375 0 0 0 1.887-.369 3.835 3.835 0 0 0 1.379-1.137l.387.275a4.151 4.151 0 0 1-3.656 1.777zm-.2-10.865a3.6 3.6 0 0 0-2.726 1.2 5.091 5.091 0 0 0-1.312 3.047h7.671v-.132a4.652 4.652 0 0 0-.473-2.081 3.646 3.646 0 0 0-1.3-1.5 3.36 3.36 0 0 0-1.864-.53z" class="cls-4" data-name="Path 730" transform="translate(-386.104 -247.675)"/>
                <path id="Path_731" d="M467.972 252.7l-.712-.061a3.258 3.258 0 0 0-2.35.91 4.534 4.534 0 0 0-1.241 2.546v7.205h-.549v-11.006h.549v2.289a4.052 4.052 0 0 1 1.343-1.821 3.642 3.642 0 0 1 2.249-.672 2.179 2.179 0 0 1 .773.114z" class="cls-4" data-name="Path 731" transform="translate(-405.851 -247.675)"/>
            </g>
        </g>
        <g id="Group_1427" data-name="Group 1427" transform="translate(314.515 264.105)">
            <path id="Path_732" d="M325.095 301.447v2.9h-10.579v-1.6a1.294 1.294 0 0 1 1.294-1.294z" class="cls-2" data-name="Path 732" transform="translate(-314.516 -301.447)"/>
            <path id="Path_733" d="M325.095 335.336v2.9h-9.285a1.294 1.294 0 0 1-1.294-1.294v-1.6z" class="cls-2" data-name="Path 733" transform="translate(-314.516 -322.261)"/>
            <path id="Path_734" d="M317.412 317.419h-1.6a1.294 1.294 0 0 1-1.294-1.294v-13.384a1.294 1.294 0 0 1 1.294-1.294h1.6z" class="cls-4" data-name="Path 734" transform="translate(-314.515 -301.447)"/>
            <path id="Rectangle_625" d="M0 0h2.897v2.897H0z" class="cls-2" data-name="Rectangle 625" transform="translate(0 6.538)"/>
            <path id="Rectangle_626" d="M0 0h6.627v2.884H0z" class="cls-3" data-name="Rectangle 626" transform="translate(2.897 6.544)"/>
        </g>
        <g id="Group_1428" data-name="Group 1428" transform="translate(327.706 266.916)">
            <path id="Path_735" d="M354.483 322.19h-.26a5.525 5.525 0 0 1-5.518-5.519v-7.938h2.9v7.938a2.625 2.625 0 0 0 2.622 2.622h.26a2.625 2.625 0 0 0 2.622-2.622v-7.938H360v7.938a5.525 5.525 0 0 1-5.517 5.519z" class="cls-3" data-name="Path 735" transform="translate(-348.705 -308.734)"/>
            <path id="Rectangle_627" d="M0 0h2.897v13.075H0z" class="cls-4" data-name="Rectangle 627" transform="translate(8.4)"/>
            <path id="Path_736" d="M370.476 333.736v.447h2.9v-5.3a5.524 5.524 0 0 1-2.9 4.853z" class="cls-2" data-name="Path 736" transform="translate(-362.076 -321.108)"/>
            <path id="Path_737" d="M370.476 309.157v12.634a5.525 5.525 0 0 0 2.9-4.855v-7.779z" class="cls-4" data-name="Path 737" transform="translate(-362.076 -308.994)"/>
        </g>
    </g>
</svg>
